<svg xmlns="http://www.w3.org/2000/svg" viewBox="0.011109999999999953 0.04999999999999982 98.05592 98.49999"><rect width="98.05592" height="98.49999" x="0.011109999999999953" y="0.04999999999999982" fill="#fff"></rect><path d="M40.1 33.8C51 27.5 55.2 14 50.2 2.8c-.5-1-1.9-1-2.4 0-5 11.3-.8 24.7 10.1 31s24.7 3.2 31.9-6.7c.7-.9-.1-2.2-1.2-2.1-12.3 1.3-21.8 11.7-21.8 24.3s9.6 23 21.8 24.3c1.1.1 1.9-1.1 1.2-2.1-7.3-10-21-13.1-31.9-6.7-10.9 6.3-15.1 19.8-10.1 31 .5 1 1.9 1 2.4 0 5-11.3.8-24.7-10.1-31-10.9-6.3-24.7-3.2-31.9 6.7-.7.9.1 2.2 1.2 2.1 12.3-1.3 21.8-11.7 21.8-24.3S21.6 26.3 9.3 25c-1.1-.1-1.9 1.1-1.2 2.1 7.3 9.9 21.1 13 32 6.7zM69.4 7.7c-3.1 0-5.7 2.5-5.7 5.7 0 3.1 2.5 5.7 5.7 5.7 3.1 0 5.7-2.5 5.7-5.7s-2.6-5.7-5.7-5.7zm-46.3 3.1c-1.6 2.7-.6 6.2 2.1 7.8s6.2.6 7.8-2.1c1.6-2.7.6-6.2-2.1-7.8-2.7-1.5-6.2-.6-7.8 2.1zM2.8 52.5c1.6 2.7 5 3.7 7.8 2.1 2.7-1.6 3.7-5 2.1-7.8-1.6-2.7-5-3.7-7.8-2.1s-3.7 5.1-2.1 7.8zM28.6 91c3.1 0 5.7-2.5 5.7-5.7 0-3.1-2.5-5.7-5.7-5.7S23 82.1 23 85.3c0 3.1 2.5 5.7 5.6 5.7zm46.3-3.2c1.6-2.7.6-6.2-2.1-7.8-2.7-1.6-6.2-.6-7.8 2.1-1.6 2.7-.6 6.2 2.1 7.8 2.8 1.5 6.2.6 7.8-2.1zm20.4-41.7c-1.6-2.7-5-3.7-7.8-2.1-2.7 1.6-3.7 5-2.1 7.8 1.6 2.7 5 3.7 7.8 2.1 2.7-1.6 3.7-5.1 2.1-7.8z" fill="none" stroke="#333" stroke-width="4" stroke-miterlimit="10"></path></svg>